<svg viewBox="0 0 16 16" width="24" height="24">
	<path
		d="M7.99999 6.66669C7.73628 6.66669 7.4785 6.74489 7.25923 6.89139C7.03996 7.0379 6.86907 7.24614 6.76815 7.48978C6.66723 7.73341 6.64083 8.0015 6.69228 8.26014C6.74372 8.51878 6.87071 8.75636 7.05718 8.94283C7.24365 9.1293 7.48123 9.25629 7.73987 9.30773C7.99851 9.35918 8.2666 9.33278 8.51023 9.23186C8.75387 9.13094 8.96211 8.96005 9.10862 8.74078C9.25513 8.52151 9.33332 8.26373 9.33332 8.00002C9.33332 7.6464 9.19285 7.30726 8.9428 7.05721C8.69275 6.80716 8.35361 6.66669 7.99999 6.66669Z"
		fill="currentColor"
	/>
	<path
		d="M8 0C6.41775 0 4.87103 0.469192 3.55544 1.34824C2.23985 2.22729 1.21447 3.47672 0.608967 4.93853C0.00346627 6.40034 -0.15496 8.00887 0.153721 9.56072C0.462403 11.1126 1.22433 12.538 2.34315 13.6569C3.46197 14.7757 4.88743 15.5376 6.43928 15.8463C7.99113 16.155 9.59966 15.9965 11.0615 15.391C12.5233 14.7855 13.7727 13.7602 14.6518 12.4446C15.5308 11.129 16 9.58225 16 8C16 6.94942 15.7931 5.90914 15.391 4.93853C14.989 3.96793 14.3997 3.08601 13.6569 2.34315C12.914 1.60028 12.0321 1.011 11.0615 0.608964C10.0909 0.206926 9.05058 0 8 0ZM12.8 10.152C12.7979 10.8536 12.5182 11.5259 12.0221 12.0221C11.5259 12.5182 10.8536 12.7979 10.152 12.8H5.848C5.14636 12.7979 4.47405 12.5182 3.97792 12.0221C3.48178 11.5259 3.20211 10.8536 3.2 10.152V5.848C3.20211 5.14635 3.48178 4.47405 3.97792 3.97791C4.47405 3.48177 5.14636 3.20211 5.848 3.2H10.152C10.8536 3.20211 11.5259 3.48177 12.0221 3.97791C12.5182 4.47405 12.7979 5.14635 12.8 5.848V10.152Z"
		fill="currentColor"
	/>
	<path
		d="M12 5.82186C12 5.33867 11.8081 4.87528 11.4664 4.53361C11.1247 4.19195 10.6613 4 10.1781 4H5.82186C5.33867 4 4.87528 4.19195 4.53361 4.53361C4.19195 4.87528 4 5.33867 4 5.82186V10.1781C4 10.6613 4.19195 11.1247 4.53361 11.4664C4.87528 11.8081 5.33867 12 5.82186 12H10.1781C10.6613 12 11.1247 11.8081 11.4664 11.4664C11.8081 11.1247 12 10.6613 12 10.1781V5.82186ZM8 10.502C7.50515 10.502 7.02141 10.3553 6.60995 10.0804C6.19849 9.80543 5.8778 9.41467 5.68843 8.95748C5.49906 8.5003 5.44951 7.99722 5.54605 7.51188C5.64259 7.02653 5.88089 6.58072 6.2308 6.2308C6.58072 5.88089 7.02653 5.64259 7.51188 5.54605C7.99722 5.44951 8.5003 5.49906 8.95748 5.68843C9.41467 5.8778 9.80543 6.19849 10.0804 6.60995C10.3553 7.02141 10.502 7.50515 10.502 8C10.502 8.32857 10.4373 8.65392 10.3116 8.95748C10.1858 9.26104 10.0015 9.53686 9.7692 9.7692C9.53686 10.0015 9.26104 10.1858 8.95748 10.3116C8.65392 10.4373 8.32857 10.502 8 10.502ZM11.0526 5.84615C10.9342 5.96401 10.7744 6.03085 10.6073 6.03239C10.4409 6.0276 10.2822 5.96124 10.1619 5.84615C10.1025 5.78741 10.0552 5.71743 10.023 5.64029C9.99074 5.56315 9.97414 5.48037 9.97414 5.39676C9.97414 5.31315 9.99074 5.23038 10.023 5.15323C10.0552 5.07609 10.1025 5.00612 10.1619 4.94737C10.2818 4.83162 10.4407 4.76514 10.6073 4.76113C10.7318 4.76162 10.8535 4.79893 10.9569 4.86836C11.0603 4.9378 11.1408 5.03625 11.1884 5.15135C11.236 5.26645 11.2485 5.39305 11.2244 5.51524C11.2002 5.63743 11.1405 5.74974 11.0526 5.83806V5.84615Z"
		fill="currentColor"
	/>
</svg>
